<?xml version="1.0" encoding="utf-8"?>
<!-- Generator: Adobe Illustrator 27.1.1, SVG Export Plug-In . SVG Version: 6.00 Build 0)  -->
<svg version="1.1" id="Layer_1" xmlns="http://www.w3.org/2000/svg" xmlns:xlink="http://www.w3.org/1999/xlink" x="0px" y="0px"
	 viewBox="0 0 177.26 165.29" style="enable-background:new 0 0 177.26 165.29;" xml:space="preserve">
<style type="text/css">
	.st0{fill:#6900FF;}
	.st1{fill:#FFD700;}
	.st2{fill:#A7AAAD;}
</style>
<rect x="398.23" y="-3.11" class="st0" width="183.06" height="174.47"/>
<g>
	<g>
		<g>
			<path class="st1" d="M424.98,55.32l-1.84,8.64c-0.6,2.8-0.05,5.72,1.52,8.11c1.57,2.39,4.02,4.06,6.82,4.63l29.49,6.04l0,47.42
				c0,5.92,4.8,10.73,10.73,10.73l8.92,0l0.01-63.26c0-6.28-4.41-11.7-10.56-12.97L424.98,55.32z"/>
			<path class="st1" d="M554.96,55.32l1.84,8.64c0.6,2.8,0.05,5.72-1.52,8.11c-1.57,2.39-4.02,4.06-6.82,4.63l-29.49,6.04l0,47.42
				c0,5.92-4.8,10.73-10.73,10.73l-8.92,0l-0.01-63.26c0-6.28,4.41-11.7,10.56-12.97L554.96,55.32z"/>
		</g>
		<g>
			<path class="st1" d="M429.67,34.71l53.19,10.94c4.5,0.93,9.14,0.94,13.65,0.05l54.15-10.69l-1.13-5.33
				c-1.64-7.72-9.18-12.68-16.92-11.14l-42.86,8.54l-42.19-8.75c-7.77-1.61-15.39,3.36-17.03,11.13l-1.11,5.23L429.67,34.71z"/>
		</g>
	</g>
</g>
<rect x="193.57" y="-3.78" class="st1" width="183.06" height="174.47"/>
<g>
	<g>
		<g>
			<path class="st0" d="M220.31,54.66l-1.84,8.64c-0.6,2.8-0.05,5.72,1.52,8.11s4.02,4.06,6.82,4.63l29.49,6.04l0,47.42
				c0,5.92,4.8,10.73,10.73,10.73l8.92,0l0.01-63.26c0-6.28-4.41-11.7-10.56-12.97L220.31,54.66z"/>
			<path class="st0" d="M350.29,54.66l1.84,8.64c0.6,2.8,0.05,5.72-1.52,8.11c-1.57,2.39-4.02,4.06-6.82,4.63l-29.49,6.04l0,47.42
				c0,5.92-4.8,10.73-10.73,10.73l-8.92,0l-0.01-63.26c0-6.28,4.41-11.7,10.56-12.97L350.29,54.66z"/>
		</g>
		<g>
			<path class="st0" d="M225,34.04l53.19,10.94c4.5,0.93,9.14,0.94,13.65,0.05l54.15-10.69l-1.13-5.33
				c-1.64-7.72-9.18-12.68-16.92-11.14l-42.86,8.54l-42.19-8.75c-7.77-1.61-15.39,3.36-17.03,11.13l-1.11,5.23L225,34.04z"/>
		</g>
	</g>
</g>
<g>
	<g>
		<g>
			<path class="st2" d="M3.6,51.04l-2.41,11.3C0.41,66,1.13,69.82,3.17,72.95c2.05,3.13,5.26,5.31,8.92,6.06l38.56,7.89l-0.01,62
				c0,7.75,6.28,14.03,14.02,14.03l11.67,0l0.01-82.72c0-8.21-5.77-15.3-13.81-16.96L3.6,51.04z"/>
			<path class="st2" d="M173.56,51.04l2.41,11.3c0.78,3.66,0.06,7.47-1.98,10.6c-2.05,3.13-5.26,5.31-8.92,6.06l-38.56,7.89l0.01,62
				c0,7.75-6.28,14.03-14.02,14.03l-11.67,0l-0.01-82.72c0-8.21,5.77-15.3,13.81-16.96L173.56,51.04z"/>
		</g>
		<g>
			<path class="st2" d="M9.73,24.08l69.55,14.3c5.89,1.21,11.95,1.23,17.85,0.07l70.81-13.98l-1.48-6.97
				c-2.15-10.09-12-16.58-22.12-14.57L88.29,14.1L33.12,2.66C22.95,0.55,13,7.06,10.85,17.22L9.4,24.06L9.73,24.08z"/>
		</g>
	</g>
</g>
<g>
</g>
<g>
</g>
<g>
</g>
<g>
</g>
<g>
</g>
<g>
</g>
</svg>
